<svg width="253" height="33" viewBox="0 0 253 33" fill="none" xmlns="http://www.w3.org/2000/svg">
<path d="M9.65 4.4L9.60006 3.40125L8.69359 3.44657L8.6511 4.35317L9.65 4.4ZM9.9 19.5L10.8985 19.4445L10.8977 19.4324L9.9 19.5ZM10.1 23.15L9.10148 23.2045L9.10154 23.2055L10.1 23.15ZM10.25 28.1H9.25V29.205L10.3495 29.095L10.25 28.1ZM11.3 27.95L11.1356 26.9636L11.1283 26.9648L11.1211 26.9661L11.3 27.95ZM13.95 28.4L13.3041 29.1634L13.3041 29.1634L13.95 28.4ZM14 31.25L14.5547 32.0821L14.5547 32.0821L14 31.25ZM11.9 31.85L12.0029 32.8447L12.0176 32.8432L12.0322 32.8412L11.9 31.85ZM3 31.8L2.87203 32.7918L2.87203 32.7918L3 31.8ZM0.85 31.05L0.142893 31.7571L0.158258 31.7725L0.174276 31.7872L0.85 31.05ZM0.8 28.15L0.321148 27.2721L0.321148 27.2721L0.8 28.15ZM2.35 27.85L2.39757 26.8511L2.3738 26.85H2.35V27.85ZM3.4 27.9L3.4605 26.9017L3.44757 26.9011L3.4 27.9ZM5.05 28L4.98951 28.9982L6.09603 29.0652L6.0491 27.9577L5.05 28ZM4.8 22.1L5.7991 22.0577L5.79868 22.0476L5.79805 22.0376L4.8 22.1ZM4.65 7.4L5.64921 7.43997L5.64934 7.43634L4.65 7.4ZM4.75 4.65L5.74934 4.68634L5.78931 3.58713L4.69128 3.65172L4.75 4.65ZM0.6 4.35L-0.152577 5.0085L-0.130652 5.03356L-0.107107 5.0571L0.6 4.35ZM2.15 0.899998L1.94905 -0.0796177L1.94399 -0.0785516L2.15 0.899998ZM12.6 0.699998L12.4678 1.69123L12.472 1.69178L12.6 0.699998ZM13.4 3.85L13.9813 4.6638L13.9914 4.6564L13.4 3.85ZM10.65 4.35V3.35H10.625L10.6001 3.35125L10.65 4.35ZM8.6511 4.35317C8.55043 6.50079 8.5 8.56646 8.5 10.55H10.5C10.5 8.60021 10.5496 6.56587 10.6489 4.44682L8.6511 4.35317ZM8.5 10.55C8.5 12.618 8.63523 15.6285 8.90229 19.5676L10.8977 19.4324C10.6314 15.5048 10.5 12.5486 10.5 10.55H8.5ZM8.90154 19.5555C8.93484 20.1549 9.00148 21.371 9.10148 23.2045L11.0985 23.0955C10.9985 21.2623 10.9318 20.0451 10.8985 19.4445L8.90154 19.5555ZM9.10154 23.2055C9.20071 24.9905 9.25 26.6217 9.25 28.1H11.25C11.25 26.5783 11.1993 24.9095 11.0985 23.0945L9.10154 23.2055ZM10.3495 29.095C10.7122 29.0588 11.0888 29.0048 11.4789 28.9339L11.1211 26.9661C10.7779 27.0285 10.4545 27.0746 10.1505 27.105L10.3495 29.095ZM11.4644 28.9364C11.8534 28.8716 12.0863 28.85 12.2 28.85V26.85C11.9137 26.85 11.5466 26.8951 11.1356 26.9636L11.4644 28.9364ZM12.2 28.85C12.7672 28.85 13.0986 28.9895 13.3041 29.1634L14.5959 27.6366C13.9348 27.0771 13.0995 26.85 12.2 26.85V28.85ZM13.3041 29.1634C13.4412 29.2794 13.6 29.5185 13.6 30.1H15.6C15.6 29.1482 15.3255 28.2539 14.5959 27.6366L13.3041 29.1634ZM13.6 30.1C13.6 30.2817 13.554 30.3455 13.4453 30.4179L14.5547 32.0821C15.246 31.6212 15.6 30.9183 15.6 30.1H13.6ZM13.4453 30.4179C13.2489 30.5489 12.7474 30.7282 11.7678 30.8588L12.0322 32.8412C13.0526 32.7052 13.9511 32.4845 14.5547 32.0821L13.4453 30.4179ZM11.7971 30.8553C10.8828 30.9499 9.50743 31 7.65 31V33C9.5259 33 10.9839 32.9501 12.0029 32.8447L11.7971 30.8553ZM7.65 31C5.59317 31 4.09543 30.9331 3.12797 30.8082L2.87203 32.7918C3.97124 32.9336 5.5735 33 7.65 33V31ZM3.12797 30.8082C2.13966 30.6807 1.68743 30.4611 1.52572 30.3128L0.174276 31.7872C0.812567 32.3723 1.79367 32.6526 2.87203 32.7918L3.12797 30.8082ZM1.55711 30.3429C1.40349 30.1893 1.25 29.8982 1.25 29.3H-0.75C-0.75 30.2351 -0.503487 31.1107 0.142893 31.7571L1.55711 30.3429ZM1.25 29.3C1.25 29.1185 1.28014 29.0388 1.28963 29.019C1.2935 29.0109 1.29337 29.0136 1.28696 29.0204C1.28044 29.0273 1.27578 29.0296 1.27885 29.0279L0.321148 27.2721C-0.479407 27.7088 -0.75 28.5166 -0.75 29.3H1.25ZM1.27885 29.0279C1.43612 28.9421 1.76099 28.85 2.35 28.85V26.85C1.60568 26.85 0.897216 26.9579 0.321148 27.2721L1.27885 29.0279ZM2.30243 28.8489L3.35243 28.8989L3.44757 26.9011L2.39757 26.8511L2.30243 28.8489ZM3.33951 28.8982L4.98951 28.9982L5.1105 27.0018L3.4605 26.9018L3.33951 28.8982ZM6.0491 27.9577L5.7991 22.0577L3.8009 22.1423L4.0509 28.0423L6.0491 27.9577ZM5.79805 22.0376C5.5991 18.8544 5.5 15.9422 5.5 13.3H3.5C3.5 15.9911 3.6009 18.9456 3.80195 22.1624L5.79805 22.0376ZM5.5 13.3C5.5 11.8862 5.54941 9.93487 5.6492 7.43997L3.6508 7.36003C3.5506 9.86513 3.5 11.8471 3.5 13.3H5.5ZM5.64934 7.43634L5.74934 4.68634L3.75066 4.61366L3.65066 7.36366L5.64934 7.43634ZM4.69128 3.65172C3.56482 3.71799 2.7042 3.75 2.1 3.75V5.75C2.76247 5.75 3.66852 5.71534 4.80872 5.64827L4.69128 3.65172ZM2.1 3.75C1.7873 3.75 1.57177 3.72086 1.43266 3.68376C1.2921 3.64628 1.27815 3.61394 1.30711 3.64289L-0.107107 5.0571C0.460043 5.62426 1.32189 5.75 2.1 5.75V3.75ZM1.35258 3.69149C1.39589 3.74099 1.35739 3.72639 1.31573 3.52999C1.27699 3.34734 1.25 3.07689 1.25 2.7H-0.75C-0.75 3.15644 -0.718655 3.57766 -0.640734 3.945C-0.565726 4.29861 -0.429223 4.69233 -0.152577 5.0085L1.35258 3.69149ZM1.25 2.7C1.25 2.48651 1.31045 2.37286 1.41274 2.27595C1.54535 2.15032 1.82174 1.99103 2.35601 1.87855L1.94399 -0.0785516C1.21159 0.0756376 0.537979 0.349676 0.0372554 0.824046C-0.493782 1.32713 -0.75 1.98015 -0.75 2.7H1.25ZM2.35094 1.8796C3.54814 1.63402 5.43193 1.5 8.05 1.5V-0.500003C5.40141 -0.500003 3.35186 -0.367361 1.94906 -0.0796046L2.35094 1.8796ZM8.05 1.5C10.074 1.5 11.5363 1.56702 12.4678 1.69123L12.7322 -0.29123C11.6637 -0.433688 10.0926 -0.500003 8.05 -0.500003V1.5ZM12.472 1.69178C12.9403 1.7522 13.1725 1.8388 13.2604 1.88979C13.2956 1.91027 13.2648 1.90079 13.2239 1.8401C13.176 1.76913 13.15 1.68043 13.15 1.6H15.15C15.15 0.908359 14.7315 0.431291 14.2646 0.160209C13.8358 -0.0887993 13.293 -0.218873 12.728 -0.29178L12.472 1.69178ZM13.15 1.6C13.15 2.66606 12.9006 2.97613 12.8086 3.04359L13.9914 4.6564C14.8994 3.99054 15.15 2.8006 15.15 1.6H13.15ZM12.8188 3.03626C12.7575 3.08004 12.5769 3.16962 12.1836 3.24113C11.8047 3.31003 11.2983 3.35 10.65 3.35V5.35C11.3683 5.35 12.0037 5.30663 12.5414 5.20887C13.0647 5.11372 13.5759 4.95329 13.9812 4.66373L12.8188 3.03626ZM10.6001 3.35125L9.60006 3.40125L9.69994 5.39875L10.6999 5.34875L10.6001 3.35125ZM35.7328 0.75L35.1781 1.58205L35.1903 1.59021L35.2028 1.598L35.7328 0.75ZM36.6828 2.5L35.6899 2.61914L35.6918 2.63469L35.6942 2.65017L36.6828 2.5ZM37.4328 10.4L36.4334 10.438L36.4341 10.4512L37.4328 10.4ZM37.2828 26.9L36.2848 26.8371L36.2236 27.8078L37.1923 27.8959L37.2828 26.9ZM44.5328 26.85L44.6159 27.8465L44.6451 27.8441L44.6742 27.8399L44.5328 26.85ZM49.7828 26.85L49.5403 27.8201L49.5634 27.8259L49.5867 27.8306L49.7828 26.85ZM51.8328 27.55L52.329 26.6818L52.2965 26.6632L52.2627 26.6471L51.8328 27.55ZM52.2328 31.2L51.4567 30.5694L51.4445 30.5845L51.4328 30.6L52.2328 31.2ZM48.8828 31.8L49.0349 30.8116L49.0301 30.8109L48.8828 31.8ZM42.7828 31.55L42.8415 32.5483L42.8674 32.5468L42.8932 32.5439L42.7828 31.55ZM41.5328 31.6V30.6H41.4706L41.4088 30.6077L41.5328 31.6ZM34.7328 31.5L34.86 30.5081L34.8462 30.5063L34.8323 30.505L34.7328 31.5ZM32.7328 30.75L32.1594 31.5692L32.1734 31.5791L32.1878 31.5884L32.7328 30.75ZM31.9328 24.9L30.9351 24.8322L30.9349 24.8356L31.9328 24.9ZM31.8328 9.75L32.8294 9.66695L32.8284 9.65582L32.8273 9.64471L31.8328 9.75ZM31.9828 0.849999L31.3045 0.115196L31.2898 0.128756L31.2757 0.142893L31.9828 0.849999ZM34.0328 1.25C34.4799 1.25 34.8515 1.36429 35.1781 1.58205L36.2875 -0.082049C35.6142 -0.530959 34.8524 -0.750003 34.0328 -0.750003V1.25ZM35.2028 1.598C35.3999 1.72117 35.6131 1.97869 35.6899 2.61914L37.6757 2.38085C37.5525 1.35464 37.1324 0.445493 36.2628 -0.0979986L35.2028 1.598ZM35.6942 2.65017C36.0886 5.24673 36.335 7.84259 36.4335 10.4379L38.4321 10.3621C38.3307 7.69074 38.0771 5.01994 37.6715 2.34982L35.6942 2.65017ZM36.4341 10.4512C36.5664 13.0304 36.6328 15.9628 36.6328 19.25H38.6328C38.6328 15.9372 38.5659 12.9696 38.4315 10.3488L36.4341 10.4512ZM36.6328 19.25C36.6328 20.6143 36.5183 23.1348 36.2848 26.8371L38.2808 26.9629C38.514 23.2652 38.6328 20.6857 38.6328 19.25H36.6328ZM37.1923 27.8959C38.6686 28.0301 39.8373 28.1 40.6828 28.1V26.1C39.9283 26.1 38.8304 26.0366 37.3733 25.9041L37.1923 27.8959ZM40.6828 28.1C41.2996 28.1 42.6278 28.0122 44.6159 27.8465L44.4498 25.8535C42.4378 26.0211 41.1994 26.1 40.6828 26.1V28.1ZM44.6742 27.8399C45.8095 27.6778 46.7768 27.6 47.5828 27.6V25.6C46.6554 25.6 45.5895 25.6889 44.3914 25.8601L44.6742 27.8399ZM47.5828 27.6C48.3141 27.6 48.9646 27.6762 49.5403 27.8201L50.0253 25.8799C49.2677 25.6904 48.4516 25.6 47.5828 25.6V27.6ZM49.5867 27.8306C50.1621 27.9457 50.7671 28.1501 51.4029 28.4529L52.2627 26.6471C51.4985 26.2832 50.7368 26.021 49.9789 25.8694L49.5867 27.8306ZM51.3367 28.4182C51.7124 28.6329 51.8828 28.9106 51.8828 29.4H53.8828C53.8828 28.2227 53.3533 27.2671 52.329 26.6818L51.3367 28.4182ZM51.8828 29.4C51.8828 29.8294 51.75 30.2084 51.4567 30.5694L53.0089 31.8306C53.5823 31.125 53.8828 30.3039 53.8828 29.4H51.8828ZM51.4328 30.6C51.184 30.9318 50.9768 31 50.7828 31V33C51.7222 33 52.4817 32.5349 53.0328 31.8L51.4328 30.6ZM50.7828 31C50.4648 31 49.896 30.9441 49.0349 30.8116L48.7308 32.7884C49.603 32.9226 50.3009 33 50.7828 33V31ZM49.0301 30.8109C47.4197 30.5711 45.8703 30.45 44.3828 30.45V32.45C45.762 32.45 47.2126 32.5623 48.7355 32.7891L49.0301 30.8109ZM44.3828 30.45C43.8704 30.45 43.299 30.4865 42.6724 30.5561L42.8932 32.5439C43.4666 32.4802 43.9619 32.45 44.3828 32.45V30.45ZM42.7241 30.5517C42.1603 30.5849 41.7683 30.6 41.5328 30.6V32.6C41.8307 32.6 42.272 32.5818 42.8415 32.5483L42.7241 30.5517ZM41.4088 30.6077C40.6496 30.7026 39.891 30.75 39.1328 30.75V32.75C39.9746 32.75 40.816 32.6974 41.6568 32.5923L41.4088 30.6077ZM39.1328 30.75C37.5321 30.75 36.109 30.6683 34.86 30.5081L34.6056 32.4919C35.9566 32.6651 37.4668 32.75 39.1328 32.75V30.75ZM34.8323 30.505C34.3516 30.4569 33.8355 30.2741 33.2778 29.9116L32.1878 31.5884C32.9635 32.0926 33.7807 32.4098 34.6333 32.495L34.8323 30.505ZM33.3063 29.9308C32.9268 29.6651 32.7328 29.3154 32.7328 28.75H30.7328C30.7328 29.918 31.2055 30.9015 32.1594 31.5692L33.3063 29.9308ZM32.7328 28.75C32.7328 28.2897 32.7966 27.0438 32.9307 24.9644L30.9349 24.8356C30.8024 26.8895 30.7328 28.2103 30.7328 28.75H32.7328ZM32.9305 24.9678C33.1643 21.5283 33.2828 18.8846 33.2828 17.05H31.2828C31.2828 18.8154 31.168 21.4051 30.9351 24.8322L32.9305 24.9678ZM33.2828 17.05C33.2828 15.6184 33.2146 14.1227 33.0791 12.5634L31.0866 12.7366C31.2176 14.2439 31.2828 15.6816 31.2828 17.05H33.2828ZM33.0791 12.5634C32.9457 11.0294 32.8625 10.0648 32.8294 9.66695L30.8363 9.83304C30.8698 10.2352 30.9533 11.2039 31.0866 12.7366L33.0791 12.5634ZM32.8273 9.64471C32.5292 6.82949 32.3828 4.53453 32.3828 2.75H30.3828C30.3828 4.63214 30.5365 7.00384 30.8384 9.85529L32.8273 9.64471ZM32.3828 2.75C32.3828 2.01029 32.5567 1.69036 32.6899 1.5571L31.2757 0.142893C30.609 0.809638 30.3828 1.75638 30.3828 2.75H32.3828ZM32.6611 1.5848C32.8277 1.43103 33.2109 1.25 34.0328 1.25V-0.750003C32.988 -0.750003 32.0046 -0.531034 31.3045 0.115196L32.6611 1.5848ZM65.877 31.25L65.5816 32.2054L65.5896 32.2079L65.5976 32.2102L65.877 31.25ZM61.377 28.8L62.0518 28.0619L62.042 28.0532L61.377 28.8ZM56.877 22.6L55.9384 22.9451L55.9415 22.9534L55.9447 22.9618L56.877 22.6ZM55.927 11.9L54.9831 11.5696L54.978 11.5842L54.9734 11.5989L55.927 11.9ZM56.827 9.7L57.736 10.1167L57.7412 10.1053L57.7461 10.0939L56.827 9.7ZM57.277 8.6L56.3608 8.19918L56.3544 8.2138L56.3485 8.22861L57.277 8.6ZM57.727 7.15L56.8481 6.67291L56.7651 6.82589L56.7386 6.99794L57.727 7.15ZM60.927 3.8L60.3559 2.97905L60.3474 2.98504L60.927 3.8ZM65.877 1.25L66.2144 2.19134L66.2222 2.18853L66.23 2.1856L65.877 1.25ZM84.327 6.85L85.1806 6.32895L85.1735 6.3177L84.327 6.85ZM84.827 23.45L83.9278 23.0123L83.9232 23.0219L84.827 23.45ZM79.827 29.35L80.3415 30.2075L80.3587 30.1971L80.3756 30.186L79.827 29.35ZM75.727 31.3L76.0633 32.2417L75.727 31.3ZM60.827 17.65L61.8268 17.6682L61.827 17.6547L61.8269 17.6412L60.827 17.65ZM61.977 22.2L61.1449 22.7547L61.1538 22.7681L61.1632 22.7812L61.977 22.2ZM65.877 26.05L65.2559 26.8337L65.3789 26.9312L65.5258 26.9863L65.877 26.05ZM68.677 27.05L68.9752 26.0955L68.9752 26.0955L68.677 27.05ZM76.177 25.95L75.7018 25.0701L75.7018 25.0701L76.177 25.95ZM80.027 22.25L79.1679 21.7382L79.1638 21.745L79.1598 21.7519L80.027 22.25ZM77.527 7.05L76.8901 7.82096L76.8972 7.82685L76.9044 7.8326L77.527 7.05ZM74.577 5.65L74.3279 6.61851L74.3344 6.62014L74.577 5.65ZM63.377 8.6L62.5882 7.98525L62.587 7.98687L63.377 8.6ZM71.927 31.05C69.8074 31.05 67.8863 30.7931 66.1563 30.2898L65.5976 32.2102C67.5343 32.7736 69.6465 33.05 71.927 33.05V31.05ZM66.1723 30.2946C64.4503 29.7623 63.0887 29.0101 62.0517 28.062L60.7022 29.538C61.9985 30.7233 63.637 31.6043 65.5816 32.2054L66.1723 30.2946ZM62.042 28.0532C60.0044 26.2384 58.6085 24.298 57.8092 22.2382L55.9447 22.9618C56.8787 25.3687 58.4829 27.5616 60.7119 29.5468L62.042 28.0532ZM57.8155 22.2549C57.0367 20.1365 56.627 17.3805 56.627 13.95H54.627C54.627 17.5195 55.0506 20.5302 55.9384 22.9451L57.8155 22.2549ZM56.627 13.95C56.627 13.3083 56.7143 12.7275 56.8805 12.2011L54.9734 11.5989C54.7396 12.3392 54.627 13.1251 54.627 13.95H56.627ZM56.8708 12.2303C57.0918 11.599 57.3793 10.895 57.736 10.1167L55.9179 9.28334C55.5413 10.105 55.2288 10.8676 54.9831 11.5696L56.8708 12.2303ZM57.7461 10.0939C57.8512 9.84871 58.005 9.47254 58.2054 8.97139L56.3485 8.22861C56.1489 8.72746 56.0027 9.08462 55.9078 9.30608L57.7461 10.0939ZM58.1931 9.00082C58.4506 8.41229 58.632 7.84381 58.7153 7.30206L56.7386 6.99794C56.6886 7.32285 56.57 7.72104 56.3608 8.19918L58.1931 9.00082ZM58.6058 7.62709C59.1439 6.63584 60.0855 5.62543 61.5065 4.61495L60.3474 2.98504C58.7684 4.1079 57.5767 5.33083 56.8481 6.67291L58.6058 7.62709ZM61.498 4.6209C62.9588 3.60473 64.5302 2.79512 66.2144 2.19134L65.5395 0.30866C63.6904 0.971543 61.9618 1.86194 60.3559 2.97909L61.498 4.6209ZM66.23 2.1856C67.9271 1.54519 69.3531 1.25 70.527 1.25V-0.750003C69.0341 -0.750003 67.3602 -0.37853 65.5239 0.314398L66.23 2.1856ZM70.527 1.25C76.7105 1.25 80.9417 3.34492 83.4804 7.3823L85.1735 6.3177C82.1788 1.55507 77.2101 -0.750003 70.527 -0.750003V1.25ZM83.4734 7.371C84.9595 9.80575 85.677 12.2111 85.677 14.6H87.677C87.677 11.7889 86.8277 9.02758 85.1805 6.329L83.4734 7.371ZM85.677 14.6C85.677 17.8442 85.0831 20.6394 83.9278 23.0123L85.7261 23.8877C87.0375 21.194 87.677 18.0891 87.677 14.6H85.677ZM83.9232 23.0219C82.7939 25.4061 81.2431 27.2245 79.2783 28.514L80.3756 30.186C82.6774 28.6755 84.4601 26.5605 85.7307 23.8781L83.9232 23.0219ZM79.3125 28.4925C78.033 29.2602 76.7258 29.8814 75.3906 30.3583L76.0633 32.2417C77.5281 31.7186 78.9542 31.0398 80.3415 30.2075L79.3125 28.4925ZM75.3906 30.3583C74.0668 30.831 72.9162 31.05 71.927 31.05V33.05C73.2044 33.05 74.5871 32.769 76.0633 32.2417L75.3906 30.3583ZM59.8271 17.6318C59.7911 19.6135 60.2047 21.3445 61.1449 22.7547L62.809 21.6453C62.1492 20.6555 61.7962 19.3532 61.8268 17.6682L59.8271 17.6318ZM61.1632 22.7812C62.0728 24.0547 63.4526 25.4048 65.2559 26.8337L66.498 25.2663C64.7679 23.8952 63.5478 22.6787 62.7907 21.6188L61.1632 22.7812ZM65.5258 26.9863C66.8581 27.4859 67.8154 27.8285 68.3787 28.0045L68.9752 26.0955C68.4718 25.9382 67.5625 25.6141 66.2281 25.1137L65.5258 26.9863ZM68.3787 28.0045C69.0205 28.205 69.7057 28.3 70.427 28.3V26.3C69.8815 26.3 69.4001 26.2283 68.9752 26.0955L68.3787 28.0045ZM70.427 28.3C72.7354 28.3 74.8196 27.8194 76.6521 26.8299L75.7018 25.0701C74.2009 25.8806 72.4518 26.3 70.427 26.3V28.3ZM76.6521 26.8299C78.4741 25.846 79.8969 24.484 80.8941 22.7481L79.1598 21.7519C78.357 23.1493 77.2132 24.254 75.7018 25.0701L76.6521 26.8299ZM80.8861 22.7618C81.9172 21.0309 82.427 19.1022 82.427 17H80.427C80.427 18.7644 80.0034 20.3357 79.1679 21.7382L80.8861 22.7618ZM82.427 17C82.427 14.4095 82.1397 12.2699 81.5098 10.6396L79.6442 11.3604C80.1476 12.6634 80.427 14.5239 80.427 17H82.427ZM81.5098 10.6396C80.8677 8.97784 79.7284 7.52339 78.1495 6.2674L76.9044 7.8326C78.2588 8.90994 79.1529 10.0888 79.6442 11.3604L81.5098 10.6396ZM78.1638 6.27904C77.2577 5.53048 76.1297 5.00742 74.8195 4.67986L74.3344 6.62014C75.4242 6.89258 76.2629 7.30285 76.8901 7.82096L78.1638 6.27904ZM74.826 4.68151C73.5698 4.35849 72.2355 4.2 70.827 4.2V6.2C72.0851 6.2 73.2507 6.34151 74.3279 6.61849L74.826 4.68151ZM70.827 4.2C67.3587 4.2 64.5677 5.44561 62.5882 7.98526L64.1657 9.21474C65.7196 7.22105 67.8952 6.2 70.827 6.2V4.2ZM62.587 7.98687C60.6748 10.4506 59.7924 13.7109 59.827 17.6588L61.8269 17.6412C61.7949 13.9891 62.6124 11.216 64.1669 9.21312L62.587 7.98687ZM95.6109 1.75L96.5588 1.43119L96.5549 1.41967L96.5507 1.40826L95.6109 1.75ZM99.8109 13.85L98.8689 14.1854L98.8697 14.1877L99.8109 13.85ZM104.111 25.2L103.184 25.5764L104.235 28.1619L105.066 25.4977L104.111 25.2ZM108.111 14.05L109.042 14.4152L109.043 14.4128L108.111 14.05ZM112.861 2.25L111.939 1.86327L111.939 1.86351L112.861 2.25ZM117.261 1.3L116.636 2.08087L116.653 2.09399L116.67 2.1064L117.261 1.3ZM117.861 4.2L116.925 3.84887L116.925 3.84888L117.861 4.2ZM117.411 5.25L118.302 5.70305L118.311 5.68621L118.319 5.66906L117.411 5.25ZM114.311 12.3L115.242 12.6653L115.243 12.6613L114.311 12.3ZM110.511 22.35L109.573 22.0039L111.439 22.7214L110.511 22.35ZM109.111 26.1L110.045 26.4583L110.047 26.4511L109.111 26.1ZM107.461 30.4L106.527 30.0417L106.525 30.0489L107.461 30.4ZM106.461 31.65L106.985 32.5017L106.993 32.4965L107.002 32.4912L106.461 31.65ZM103.061 31.65L102.651 32.5619L102.677 32.574L102.705 32.5845L103.061 31.65ZM101.611 30.75L100.725 31.2135L100.796 31.349L100.904 31.4571L101.611 30.75ZM97.2609 21.35L96.3398 21.7394L96.3426 21.7457L97.2609 21.35ZM92.7609 10L93.7002 9.65681L93.7001 9.65642L92.7609 10ZM92.0109 7.95L91.0692 8.28634L91.0718 8.29358L92.0109 7.95ZM90.9109 4.75L89.9542 5.04118L89.958 5.0532L90.9109 4.75ZM91.6609 1.3L91.1984 0.413414L91.1902 0.417683L91.1821 0.422103L91.6609 1.3ZM94.9109 0.949997L95.3582 0.0555701L95.3582 0.05557L94.9109 0.949997ZM94.6631 2.06881C95.8987 5.74203 97.3006 9.78099 98.8689 14.1854L100.753 13.5146C99.1879 9.119 97.7899 5.0913 96.5588 1.43119L94.6631 2.06881ZM98.8697 14.1877C100.44 18.5633 101.878 22.3601 103.184 25.5764L105.037 24.8236C103.744 21.6399 102.316 17.8701 100.752 13.5123L98.8697 14.1877ZM105.066 25.4977C106.023 22.4279 107.347 18.735 109.042 14.4152L107.18 13.6848C105.475 18.0317 104.132 21.7721 103.156 24.9023L105.066 25.4977ZM109.043 14.4128C110.74 10.0523 112.321 6.12706 113.783 2.63648L111.939 1.86351C110.468 5.37294 108.881 9.31436 107.179 13.6872L109.043 14.4128ZM113.783 2.63673C113.945 2.25034 114.133 2.03108 114.312 1.90498C114.485 1.7828 114.718 1.7 115.061 1.7V-0.300002C114.37 -0.300002 113.72 -0.124466 113.16 0.270016C112.606 0.660582 112.21 1.21632 111.939 1.86327L113.783 2.63673ZM115.061 1.7C115.911 1.7 116.384 1.87908 116.636 2.08087L117.886 0.51913C117.138 -0.0790822 116.144 -0.300002 115.061 -0.300002V1.7ZM116.67 2.1064C116.802 2.20386 117.011 2.46794 117.011 3.25H119.011C119.011 2.16538 118.719 1.12947 117.852 0.493594L116.67 2.1064ZM117.011 3.25C117.011 3.52956 116.972 3.72157 116.925 3.84887L118.797 4.55112C118.95 4.14509 119.011 3.70377 119.011 3.25H117.011ZM116.925 3.84888C116.837 4.0824 116.699 4.4072 116.503 4.83094L118.319 5.66906C118.523 5.22613 118.685 4.85093 118.797 4.55112L116.925 3.84888ZM116.519 4.79695C115.468 6.86651 114.421 9.24822 113.378 11.9387L115.243 12.6613C116.267 10.0184 117.288 7.70015 118.302 5.70305L116.519 4.79695ZM113.38 11.9347C112.343 14.5768 111.074 17.9338 109.573 22.0039L111.449 22.6961C112.948 18.6328 114.212 15.2898 115.242 12.6653L113.38 11.9347ZM111.439 22.7214C111.441 22.7173 111.439 22.7223 111.435 22.731C111.435 22.7311 111.427 22.7518 111.414 22.7776C111.41 22.7854 111.403 22.7993 111.394 22.8165C111.387 22.828 111.366 22.8677 111.332 22.9149C111.313 22.9412 111.258 23.0075 111.221 23.0461C111.146 23.1126 110.877 23.2684 110.672 23.3233C110.299 23.3112 109.746 22.9715 109.597 22.7278C109.553 22.6014 109.519 22.403 109.517 22.3354C109.517 22.2339 109.534 22.155 109.535 22.1451C109.541 22.1186 109.546 22.0979 109.548 22.0879C109.554 22.0669 109.559 22.0509 109.56 22.0454C109.564 22.0323 109.567 22.0227 109.568 22.0213C109.57 22.0163 109.57 22.0145 109.569 22.0189C109.563 22.0357 109.548 22.0757 109.523 22.1443C109.474 22.2778 109.391 22.5003 109.274 22.8127C109.041 23.437 108.675 24.4156 108.175 25.7489L110.047 26.4511C110.547 25.1177 110.914 24.138 111.148 23.5123C111.264 23.1997 111.348 22.9743 111.399 22.837C111.424 22.7701 111.442 22.7189 111.453 22.6889C111.456 22.6816 111.46 22.6708 111.463 22.6597C111.465 22.6551 111.469 22.6432 111.473 22.6284C111.475 22.622 111.48 22.6053 111.486 22.5839C111.488 22.5736 111.494 22.5526 111.499 22.5259C111.501 22.5159 111.517 22.4368 111.517 22.3353C111.515 22.2677 111.481 22.0692 111.437 21.9428C111.289 21.6991 110.735 21.3594 110.363 21.3473C110.157 21.4022 109.888 21.558 109.814 21.6245C109.777 21.6632 109.722 21.7295 109.702 21.7558C109.669 21.8031 109.647 21.8429 109.64 21.8546C109.631 21.872 109.624 21.8862 109.62 21.8942C109.606 21.921 109.597 21.9435 109.596 21.9461C109.59 21.9596 109.585 21.9723 109.582 21.9786L111.439 22.7214ZM108.177 25.7417L106.527 30.0417L108.395 30.7583L110.045 26.4583L108.177 25.7417ZM106.525 30.0489C106.398 30.3863 106.201 30.6286 105.92 30.8088L107.002 32.4912C107.655 32.0714 108.124 31.4804 108.397 30.7511L106.525 30.0489ZM105.937 30.7983C105.679 30.9573 105.364 31.05 104.961 31.05V33.05C105.691 33.05 106.377 32.8761 106.985 32.5017L105.937 30.7983ZM104.961 31.05C104.548 31.05 104.038 30.952 103.417 30.7155L102.705 32.5845C103.484 32.8813 104.24 33.05 104.961 33.05V31.05ZM103.471 30.7381C102.847 30.4572 102.492 30.2168 102.318 30.0429L100.904 31.4571C101.33 31.8832 101.941 32.2428 102.651 32.5619L103.471 30.7381ZM102.497 30.2865C101.381 28.1531 99.9427 25.0467 98.1793 20.9543L96.3426 21.7457C98.1125 25.8533 99.5741 29.0136 100.725 31.2135L102.497 30.2865ZM98.182 20.9606C96.4539 16.8729 94.9602 13.1052 93.7002 9.65681L91.8217 10.3432C93.095 13.8282 94.6013 17.6271 96.3399 21.7394L98.182 20.9606ZM93.7001 9.65642L92.9501 7.60642L91.0718 8.29358L91.8218 10.3436L93.7001 9.65642ZM92.9527 7.61366C92.4537 6.21655 92.0918 5.16308 91.8639 4.4468L89.958 5.0532C90.1968 5.80359 90.5682 6.88345 91.0692 8.28633L92.9527 7.61366ZM91.8676 4.45884C91.6456 3.72926 91.5609 3.22208 91.5609 2.9H89.5609C89.5609 3.51125 89.7096 4.2374 89.9543 5.04116L91.8676 4.45884ZM91.5609 2.9C91.5609 2.69662 91.6321 2.45482 92.1398 2.1779L91.1821 0.422103C90.2231 0.94518 89.5609 1.77004 89.5609 2.9H91.5609ZM92.1235 2.18658C92.7804 1.84384 93.3556 1.7 93.8609 1.7V-0.300002C92.9663 -0.300002 92.0748 -0.0438436 91.1984 0.413414L92.1235 2.18658ZM93.8609 1.7C94.0697 1.7 94.2669 1.74601 94.4637 1.84442L95.3582 0.05557C94.8883 -0.179343 94.3855 -0.300002 93.8609 -0.300002V1.7ZM94.4637 1.84442C94.5566 1.89087 94.6207 1.95308 94.6711 2.09174L96.5507 1.40826C96.3345 0.813585 95.9319 0.342457 95.3582 0.0555701L94.4637 1.84442ZM144.304 26.4L143.447 26.9145L143.467 26.9487L143.491 26.9812L144.304 26.4ZM144.454 29.45L143.665 28.8361L143.66 28.843L143.654 28.85L144.454 29.45ZM143.204 30.3L142.776 29.3963L142.775 29.3967L143.204 30.3ZM138.704 31.65L138.546 30.6626L138.543 30.6631L138.704 31.65ZM125.704 30.55L125.154 31.3848L125.164 31.3915L125.174 31.398L125.704 30.55ZM122.604 26.7L121.654 27.01L122.604 26.7ZM122.004 11.95L121.007 11.8835L121.006 11.8918L121.006 11.9001L122.004 11.95ZM122.754 4.95L121.765 4.80569L121.764 4.81378L122.754 4.95ZM124.654 1.5L125.215 2.32792L125.224 2.32181L125.233 2.31551L124.654 1.5ZM133.554 0.3L133.543 -0.699934L133.534 -0.699836L133.526 -0.699592L133.554 0.3ZM137.904 0.249997V-0.750069L137.893 -0.749936L137.904 0.249997ZM141.804 0.399999L142 -0.580582L141.962 -0.588231L141.923 -0.592878L141.804 0.399999ZM144.004 1.1L143.508 1.96824L143.544 1.98872L143.581 2.00618L144.004 1.1ZM144.054 4.3L143.249 3.7068L143.239 3.72088L143.229 3.73532L144.054 4.3ZM130.354 5L130.426 5.99746L130.458 5.99517L130.489 5.99083L130.354 5ZM128.354 5.35L127.97 4.42692L127.97 4.42692L128.354 5.35ZM127.654 6.2L126.668 6.0356L126.665 6.05042L126.663 6.06531L127.654 6.2ZM126.954 13.8H125.954V14.6729L126.819 14.7908L126.954 13.8ZM134.654 13.6L134.564 12.6041L134.561 12.6043L134.654 13.6ZM140.904 13.75L140.316 14.5587L140.316 14.5587L140.904 13.75ZM138.904 17.45L139.1 18.4306L139.107 18.4293L138.904 17.45ZM134.354 18L134.283 17.0025L134.282 17.0026L134.354 18ZM126.754 18.1L126.826 17.1025L125.754 17.026V18.1H126.754ZM127.054 23.3L126.067 23.456L126.069 23.4686L126.071 23.4812L127.054 23.3ZM128.454 26.25L127.747 26.9571L127.755 26.9653L127.764 26.9734L128.454 26.25ZM139.654 26.4L139.946 27.3565L139.969 27.3496L139.991 27.3417L139.654 26.4ZM142.904 26.65C143.223 26.65 143.346 26.7458 143.447 26.9145L145.162 25.8855C144.663 25.0542 143.852 24.65 142.904 24.65V26.65ZM143.491 26.9812C143.704 27.2805 143.804 27.5944 143.804 27.95H145.804C145.804 27.1722 145.571 26.4528 145.118 25.8188L143.491 26.9812ZM143.804 27.95C143.804 28.5912 143.687 28.8075 143.665 28.8361L145.244 30.0639C145.688 29.4925 145.804 28.7088 145.804 27.95H143.804ZM143.654 28.85C143.611 28.9076 143.391 29.1052 142.776 29.3963L143.632 31.2037C144.285 30.8948 144.897 30.5258 145.254 30.05L143.654 28.85ZM142.775 29.3967C141.539 29.9839 140.132 30.4088 138.546 30.6626L138.862 32.6374C140.61 32.3579 142.203 31.8828 143.633 31.2033L142.775 29.3967ZM138.543 30.6631C136.982 30.9179 134.99 31.05 132.554 31.05V33.05C135.051 33.05 137.16 32.9154 138.865 32.6369L138.543 30.6631ZM132.554 31.05C129.677 31.05 127.609 30.5611 126.234 29.702L125.174 31.398C127 32.5389 129.498 33.05 132.554 33.05V31.05ZM126.255 29.7152C124.845 28.7852 123.974 27.674 123.555 26.39L121.654 27.01C122.235 28.7927 123.43 30.2482 125.154 31.3848L126.255 29.7152ZM123.555 26.39C123.095 24.9789 122.854 23.3042 122.854 21.35H120.854C120.854 23.4625 121.114 25.3544 121.654 27.01L123.555 26.39ZM122.854 21.35V18.2H120.854V21.35H122.854ZM122.854 18.2C122.854 16.0486 122.904 13.982 123.003 11.9999L121.006 11.9001C120.905 13.918 120.854 16.018 120.854 18.2H122.854ZM123.002 12.0165C123.133 10.0462 123.38 7.73702 123.745 5.08622L121.764 4.81378C121.395 7.49631 121.142 9.85384 121.007 11.8835L123.002 12.0165ZM123.744 5.09431C123.949 3.6853 124.478 2.82704 125.215 2.32792L124.093 0.67208C122.764 1.57296 122.026 3.01469 121.765 4.80569L123.744 5.09431ZM125.233 2.31551C126.102 1.69868 127.034 1.4 128.054 1.4V-0.600001C126.608 -0.600001 125.273 -0.165351 124.076 0.684492L125.233 2.31551ZM128.054 1.4C129.402 1.4 131.246 1.36636 133.583 1.29959L133.526 -0.699592C131.196 -0.63303 129.374 -0.600001 128.054 -0.600001V1.4ZM133.566 1.29993L137.916 1.24993L137.893 -0.749936L133.543 -0.699934L133.566 1.29993ZM137.904 1.25C139.665 1.25 140.915 1.3004 141.685 1.39288L141.923 -0.592878C141.027 -0.700406 139.677 -0.750003 137.904 -0.750003V1.25ZM141.608 1.38058C142.58 1.57486 143.185 1.78333 143.508 1.96824L144.5 0.231756C143.891 -0.116672 143.029 -0.374859 142 -0.580582L141.608 1.38058ZM143.581 2.00618C143.676 2.05034 143.7 2.0871 143.709 2.10199C143.721 2.12222 143.754 2.18888 143.754 2.35H145.754C145.754 1.91111 145.662 1.46945 145.424 1.073C145.183 0.67123 144.833 0.382991 144.427 0.193816L143.581 2.00618ZM143.754 2.35C143.754 2.76669 143.613 3.2134 143.249 3.7068L144.859 4.8932C145.429 4.11993 145.754 3.26664 145.754 2.35H143.754ZM143.229 3.73532C143.016 4.04615 142.69 4.25 142.054 4.25V6.25C143.219 6.25 144.226 5.82051 144.88 4.86468L143.229 3.73532ZM142.054 4.25C141.056 4.25 139.6 4.18523 137.673 4.05237L137.535 6.04763C139.476 6.18143 140.986 6.25 142.054 6.25V4.25ZM137.673 4.05237C135.735 3.91869 134.257 3.85 133.254 3.85V5.85C134.185 5.85 135.607 5.91464 137.535 6.04763L137.673 4.05237ZM133.254 3.85C132.033 3.85 131.016 3.9005 130.219 4.00917L130.489 5.99083C131.159 5.89949 132.075 5.85 133.254 5.85V3.85ZM130.283 4.00254C129.337 4.0701 128.53 4.19333 127.97 4.42692L128.739 6.27307C128.978 6.17333 129.505 6.06323 130.426 5.99746L130.283 4.00254ZM127.97 4.42692C127.278 4.71509 126.796 5.26885 126.668 6.0356L128.641 6.3644C128.645 6.3392 128.65 6.32707 128.651 6.32386C128.652 6.32117 128.652 6.32193 128.651 6.32321C128.647 6.32841 128.662 6.30497 128.739 6.27307L127.97 4.42692ZM126.663 6.06531C126.196 9.50533 125.954 12.095 125.954 13.8H127.954C127.954 12.2384 128.179 9.76133 128.645 6.33468L126.663 6.06531ZM126.819 14.7908C127.602 14.8976 128.431 14.95 129.304 14.95V12.95C128.511 12.95 127.773 12.9024 127.089 12.8092L126.819 14.7908ZM129.304 14.95C130.422 14.95 132.246 14.8291 134.747 14.5957L134.561 12.6043C132.062 12.8376 130.32 12.95 129.304 12.95V14.95ZM134.745 14.5959C136.562 14.4307 138.046 14.35 139.204 14.35V12.35C137.963 12.35 136.413 12.436 134.564 12.6041L134.745 14.5959ZM139.204 14.35C139.891 14.35 140.203 14.4762 140.316 14.5587L141.492 12.9413C140.873 12.4905 140.051 12.35 139.204 12.35V14.35ZM140.316 14.5587C140.415 14.6308 140.454 14.6922 140.454 14.85H142.454C142.454 14.0745 142.127 13.4025 141.492 12.9413L140.316 14.5587ZM140.454 14.85C140.454 15.4224 140.313 15.7153 140.167 15.8743L141.641 17.2257C142.229 16.5847 142.454 15.7443 142.454 14.85H140.454ZM140.167 15.8743C140.018 16.037 139.61 16.2829 138.702 16.4707L139.107 18.4293C140.132 18.2171 141.057 17.863 141.641 17.2257L140.167 15.8743ZM138.708 16.4694C137.599 16.6912 136.129 16.8707 134.283 17.0025L134.426 18.9975C136.313 18.8626 137.876 18.6754 139.1 18.4306L138.708 16.4694ZM134.282 17.0026C132.47 17.1344 130.744 17.2 129.104 17.2V19.2C130.797 19.2 132.572 19.1323 134.427 18.9974L134.282 17.0026ZM129.104 17.2C128.503 17.2 127.745 17.1682 126.826 17.1025L126.683 19.0975C127.63 19.1651 128.439 19.2 129.104 19.2V17.2ZM125.754 18.1C125.754 20.3209 125.855 22.114 126.067 23.456L128.042 23.144C127.854 21.9527 127.754 20.2791 127.754 18.1H125.754ZM126.071 23.4812C126.33 24.8876 126.866 26.0763 127.747 26.9571L129.161 25.5429C128.642 25.0237 128.245 24.2457 128.038 23.1188L126.071 23.4812ZM127.764 26.9734C128.752 27.9167 130.145 28.3 131.754 28.3V26.3C130.43 26.3 129.623 25.9833 129.145 25.5266L127.764 26.9734ZM131.754 28.3C135.101 28.3 137.845 27.9974 139.946 27.3565L139.362 25.4435C137.53 26.0026 135.007 26.3 131.754 26.3V28.3ZM139.991 27.3417C141.364 26.8511 142.315 26.65 142.904 26.65V24.65C141.96 24.65 140.744 24.9489 139.318 25.4583L139.991 27.3417ZM184.02 5.3L183.272 4.63696L183.27 4.63897L184.02 5.3ZM174.37 18.2L173.56 17.6145L173.365 17.8836L173.37 18.2155L174.37 18.2ZM174.77 27.05L175.765 26.9505L175.764 26.9382L175.763 26.926L174.77 27.05ZM174.32 31.45L175.027 32.1571L175.027 32.1571L174.32 31.45ZM170.37 31.4L169.785 32.2107L169.81 32.2289L169.836 32.2455L170.37 31.4ZM169.32 19.15H168.32V19.1606L168.321 19.1713L169.32 19.15ZM168.42 17.25L169.315 16.8028L169.303 16.7793L169.29 16.7564L168.42 17.25ZM165.77 13.15L164.941 13.7089L164.948 13.7193L164.955 13.7295L165.77 13.15ZM163.07 9.7L163.777 8.99289L163.777 8.99289L163.07 9.7ZM159.62 5.75L158.799 6.32044L158.807 6.33124L159.62 5.75ZM159.32 1.55L159.854 2.39556L159.865 2.38844L159.32 1.55ZM162.82 1.25L162.373 2.14443L162.385 2.15047L162.397 2.15618L162.82 1.25ZM164.02 2.25L164.851 1.69312L164.847 1.68692L164.843 1.68079L164.02 2.25ZM169.27 9.55L170.063 8.9396L170.054 8.9286L169.27 9.55ZM171.62 12.6L170.828 13.2103L171.531 14.1223L172.336 13.2989L171.62 12.6ZM175.37 8.25L174.57 7.64999L174.568 7.65299L175.37 8.25ZM178.97 3.05L178.133 2.50275L178.132 2.50501L178.97 3.05ZM179.82 1.75L179.013 1.15998L178.998 1.18098L178.983 1.20275L179.82 1.75ZM184.62 1L184.099 1.85328L184.109 1.85947L184.119 1.86543L184.62 1ZM184.57 2.65C184.57 2.68785 184.544 2.87412 184.32 3.25762C184.107 3.62187 183.765 4.07998 183.272 4.63696L184.769 5.96303C185.309 5.35336 185.742 4.78646 186.046 4.26738C186.338 3.76754 186.57 3.21215 186.57 2.65H184.57ZM183.27 4.63897C181.997 6.08447 178.746 10.4337 173.56 17.6145L175.181 18.7855C180.395 11.5663 183.577 7.31553 184.771 5.96103L183.27 4.63897ZM173.37 18.2155C173.437 22.5112 173.57 25.5127 173.778 27.174L175.763 26.926C175.57 25.3873 175.437 22.4888 175.37 18.1845L173.37 18.2155ZM173.775 27.1495C173.875 28.148 173.92 28.8211 173.92 29.2H175.92C175.92 28.7122 175.866 27.952 175.765 26.9505L173.775 27.1495ZM173.92 29.2C173.92 30.2552 173.713 30.6434 173.613 30.7429L175.027 32.1571C175.728 31.4566 175.92 30.3448 175.92 29.2H173.92ZM173.613 30.7429C173.537 30.8192 173.232 31 172.37 31V33C173.375 33 174.37 32.8142 175.027 32.1571L173.613 30.7429ZM172.37 31C171.873 31 171.39 30.861 170.904 30.5545L169.836 32.2455C170.618 32.739 171.468 33 172.37 33V31ZM170.956 30.5893C170.548 30.2947 170.47 30.0531 170.47 29.85H168.47C168.47 30.8469 168.993 31.6386 169.785 32.2107L170.956 30.5893ZM170.47 29.85C170.47 27.4058 170.42 23.8306 170.32 19.1287L168.321 19.1713C168.42 23.8694 168.47 27.4275 168.47 29.85H170.47ZM170.32 19.15C170.32 18.8591 170.231 18.5846 170.149 18.3786C170.059 18.1536 169.935 17.9097 169.789 17.6539L168.052 18.6461C168.173 18.857 168.249 19.0131 168.292 19.1214C168.313 19.1747 168.322 19.2056 168.325 19.2175C168.329 19.2322 168.32 19.2058 168.32 19.15H170.32ZM169.789 17.6539C169.518 17.1799 169.366 16.9061 169.315 16.8028L167.526 17.6972C167.608 17.8605 167.79 18.1867 168.052 18.6461L169.789 17.6539ZM169.29 16.7564C168.569 15.4863 167.666 14.0905 166.585 12.5705L164.955 13.7295C166.008 15.2095 166.871 16.547 167.551 17.7436L169.29 16.7564ZM166.6 12.5911C165.552 11.0362 164.61 9.82566 163.777 8.99289L162.363 10.4071C163.064 11.1077 163.922 12.1972 164.941 13.7089L166.6 12.5911ZM163.777 8.99289C162.334 7.54958 161.225 6.27566 160.434 5.16876L158.807 6.33124C159.683 7.55767 160.873 8.91709 162.363 10.4071L163.777 8.99289ZM160.442 5.1796C160.04 4.60135 159.758 4.13471 159.581 3.77234C159.492 3.59201 159.436 3.45112 159.404 3.34571C159.37 3.23641 159.37 3.19322 159.37 3.2H157.37C157.37 3.68526 157.559 4.19195 157.785 4.65266C158.024 5.14029 158.367 5.69864 158.799 6.32039L160.442 5.1796ZM159.37 3.2C159.37 2.87104 159.487 2.6277 159.854 2.39549L158.786 0.70451C157.887 1.2723 157.37 2.12895 157.37 3.2H159.37ZM159.865 2.38844C160.376 2.05641 160.905 1.9 161.47 1.9V-0.100002C160.503 -0.100002 159.598 0.176916 158.775 0.711555L159.865 2.38844ZM161.47 1.9C161.72 1.9 162.017 1.96651 162.373 2.14443L163.268 0.355573C162.69 0.0668163 162.087 -0.100002 161.47 -0.100002V1.9ZM162.397 2.15618C162.745 2.31823 163.004 2.53856 163.198 2.81921L164.843 1.68079C164.437 1.09477 163.896 0.648437 163.243 0.343816L162.397 2.15618ZM163.19 2.80688C165.165 5.75378 166.932 8.21044 168.487 10.1714L170.054 8.9286C168.542 7.0229 166.808 4.61288 164.851 1.69312L163.19 2.80688ZM168.478 10.1603L170.828 13.2103L172.412 11.9897L170.062 8.93966L168.478 10.1603ZM172.336 13.2989C173.796 11.8048 175.076 10.321 176.173 8.84701L174.568 7.65299C173.532 9.04565 172.312 10.4618 170.905 11.9011L172.336 13.2989ZM176.17 8.85C177.287 7.36105 178.5 5.60851 179.809 3.59499L178.132 2.50501C176.841 4.49148 175.654 6.20562 174.57 7.65L176.17 8.85ZM179.807 3.59725L180.657 2.29725L178.983 1.20275L178.133 2.50275L179.807 3.59725ZM180.628 2.34002C181.027 1.79356 181.67 1.45 182.77 1.45V-0.550002C181.204 -0.550002 179.88 -0.0268924 179.013 1.15998L180.628 2.34002ZM182.77 1.45C183.2 1.45 183.638 1.57167 184.099 1.85328L185.142 0.146719C184.403 -0.305004 183.607 -0.550002 182.77 -0.550002V1.45ZM184.119 1.86543C184.443 2.05284 184.57 2.27258 184.57 2.65H186.57C186.57 1.56075 186.064 0.680488 185.121 0.134573L184.119 1.86543ZM209.487 1.05L209.192 2.0054L209.2 2.00786L209.208 2.01019L209.487 1.05ZM213.987 3.45L213.312 4.18804L213.316 4.19153L213.987 3.45ZM218.387 9.7L217.449 10.0451L217.452 10.0534L217.455 10.0618L218.387 9.7ZM219.387 20.3L218.438 19.9838L218.43 20.0079L218.424 20.0324L219.387 20.3ZM218.537 22.6L219.437 23.0356L219.447 23.015L219.456 22.9939L218.537 22.6ZM217.637 25.05L218.505 25.5461L218.594 25.3908L218.624 25.2144L217.637 25.05ZM214.337 28.4L213.766 27.5791L213.758 27.585L214.337 28.4ZM191.037 25.4L191.887 24.8723L191.886 24.8721L191.037 25.4ZM189.237 21.55L188.279 21.8373L188.283 21.8483L188.286 21.8591L189.237 21.55ZM190.437 8.8L189.538 8.36227L189.536 8.36727L190.437 8.8ZM195.537 2.9L195.029 2.03863L195.012 2.049L194.994 2.06008L195.537 2.9ZM199.587 1L199.923 1.94182L199.936 1.93722L199.587 1ZM195.037 22.25L194.212 22.8155L194.218 22.8234L194.223 22.8312L195.037 22.25ZM198.837 26.05L198.211 26.8294L198.334 26.9283L198.481 26.9845L198.837 26.05ZM201.687 27.1L201.371 28.0487L201.4 28.0584L201.429 28.0662L201.687 27.1ZM211.437 24.55L212.113 25.2872L212.113 25.2872L211.437 24.55ZM213.587 11L212.654 11.3604L212.654 11.3604L213.587 11ZM210.537 7.05L209.9 7.82096L209.907 7.82685L209.915 7.8326L210.537 7.05ZM207.587 5.65L207.338 6.61851L207.345 6.62014L207.587 5.65ZM198.437 7.05L199.062 7.83094L199.072 7.82242L198.437 7.05ZM194.987 11.75L194.063 11.3676L194.06 11.3745L194.058 11.3814L194.987 11.75ZM203.387 1.2C205.536 1.2 207.468 1.47268 209.192 2.0054L209.782 0.0945966C207.839 -0.506016 205.705 -0.800002 203.387 -0.800002V1.2ZM209.208 2.01019C210.924 2.50951 212.28 3.24402 213.312 4.18803L214.662 2.71197C213.361 1.52264 211.717 0.657151 209.766 0.0898036L209.208 2.01019ZM213.316 4.19153C215.317 6.00173 216.68 7.95449 217.449 10.0451L219.326 9.35493C218.428 6.91218 216.857 4.69827 214.658 2.70846L213.316 4.19153ZM217.455 10.0618C218.261 12.1396 218.687 14.8717 218.687 18.3H220.687C220.687 14.7283 220.246 11.7271 219.319 9.33822L217.455 10.0618ZM218.687 18.3C218.687 18.9426 218.6 19.5005 218.438 19.9838L220.336 20.6162C220.575 19.8995 220.687 19.124 220.687 18.3H218.687ZM218.424 20.0324C218.274 20.5711 218.01 21.2917 217.618 22.2061L219.456 22.9939C219.864 22.0416 220.167 21.2289 220.351 20.5676L218.424 20.0324ZM217.637 22.1644C217.125 23.2219 216.775 24.1419 216.651 24.8856L218.624 25.2144C218.7 24.7581 218.949 24.0448 219.437 23.0356L217.637 22.1644ZM216.769 24.5539C216.199 25.5514 215.222 26.5662 213.766 27.5791L214.908 29.2209C216.519 28.1005 217.742 26.8819 218.505 25.5461L216.769 24.5539ZM213.758 27.585C212.329 28.6007 210.772 29.4273 209.084 30.0644L209.79 31.9356C211.635 31.2394 213.345 30.3327 214.917 29.215L213.758 27.585ZM209.084 30.0644C207.387 30.7048 205.961 31 204.787 31V33C206.28 33 207.954 32.6285 209.79 31.9356L209.084 30.0644ZM204.787 31C198.603 31 194.392 28.9052 191.887 24.8723L190.188 25.9277C193.149 30.6948 198.104 33 204.787 33V31ZM191.886 24.8721C191.161 23.7048 190.596 22.4947 190.188 21.2409L188.286 21.8591C188.745 23.2719 189.38 24.6285 190.188 25.9279L191.886 24.8721ZM190.195 21.2627C189.82 20.0134 189.637 18.8102 189.637 17.65H187.637C187.637 19.0231 187.854 20.4199 188.279 21.8373L190.195 21.2627ZM189.637 17.65C189.637 14.3666 190.216 11.5706 191.339 9.23273L189.536 8.36727C188.258 11.0294 187.637 14.1334 187.637 17.65H189.637ZM191.336 9.23772C192.497 6.85282 194.08 5.03184 196.08 3.73992L194.994 2.06008C192.66 3.56815 190.844 5.68052 189.538 8.36228L191.336 9.23772ZM196.045 3.76137C197.291 3.02637 198.584 2.42012 199.923 1.94174L199.251 0.0582577C197.79 0.579877 196.383 1.24029 195.029 2.03863L196.045 3.76137ZM199.936 1.93722C201.298 1.43039 202.443 1.2 203.387 1.2V-0.800002C202.131 -0.800002 200.743 -0.49706 199.238 0.0627782L199.936 1.93722ZM192.837 17.8C192.837 19.7469 193.271 21.4422 194.212 22.8155L195.862 21.6845C195.204 20.7245 194.837 19.4531 194.837 17.8H192.837ZM194.223 22.8312C195.13 24.1001 196.472 25.432 198.211 26.8294L199.464 25.2706C197.802 23.9347 196.611 22.7332 195.851 21.6688L194.223 22.8312ZM198.481 26.9845C199.879 27.5169 200.848 27.8743 201.371 28.0487L202.003 26.1513C201.526 25.9923 200.596 25.6498 199.193 25.1155L198.481 26.9845ZM201.429 28.0662C202.03 28.2263 202.685 28.3 203.387 28.3V26.3C202.822 26.3 202.344 26.2403 201.945 26.1338L201.429 28.0662ZM203.387 28.3C206.941 28.3 209.887 27.3278 212.113 25.2872L210.761 23.8128C208.988 25.4389 206.567 26.3 203.387 26.3V28.3ZM212.113 25.2872C214.357 23.2302 215.437 20.4254 215.437 17H213.437C213.437 19.9746 212.517 22.2031 210.761 23.8128L212.113 25.2872ZM215.437 17C215.437 14.4095 215.15 12.2699 214.52 10.6396L212.654 11.3604C213.158 12.6634 213.437 14.5239 213.437 17H215.437ZM214.52 10.6396C213.878 8.97784 212.739 7.52339 211.16 6.2674L209.915 7.8326C211.269 8.90994 212.163 10.0888 212.654 11.3604L214.52 10.6396ZM211.174 6.27904C210.268 5.53048 209.14 5.00742 207.83 4.67986L207.345 6.62014C208.434 6.89258 209.273 7.30285 209.9 7.82096L211.174 6.27904ZM207.836 4.68151C206.578 4.358 205.227 4.2 203.787 4.2V6.2C205.081 6.2 206.263 6.342 207.338 6.61849L207.836 4.68151ZM203.787 4.2C201.505 4.2 199.493 4.88723 197.802 6.27757L199.072 7.82242C200.381 6.7461 201.936 6.2 203.787 6.2V4.2ZM197.812 6.26913C196.169 7.58383 194.922 9.29262 194.063 11.3676L195.911 12.1324C196.652 10.3407 197.705 8.91617 199.062 7.83087L197.812 6.26913ZM194.058 11.3814C193.244 13.4332 192.837 15.575 192.837 17.8H194.837C194.837 15.825 195.197 13.9335 195.917 12.1186L194.058 11.3814ZM231.018 7.55L230.018 7.51776L230.018 7.52747L230.018 7.53718L231.018 7.55ZM230.968 11.45L229.968 11.4372V11.45H230.968ZM231.668 19.4L232.645 19.1905L232.644 19.1863L231.668 19.4ZM232.618 22.6L231.707 23.0138L231.719 23.0392L231.732 23.064L232.618 22.6ZM234.268 25L233.492 25.6317L233.499 25.6397L233.506 25.6476L234.268 25ZM236.468 26.6L236.061 27.5138L236.081 27.5227L236.102 27.5308L236.468 26.6ZM243.118 26.45L242.717 25.5338L242.706 25.5386L243.118 26.45ZM245.518 24.05L244.617 23.6144L244.613 23.6242L245.518 24.05ZM246.668 9.45L245.67 9.51652L245.67 9.52579L245.671 9.53505L246.668 9.45ZM247.468 1L246.931 0.156338L246.931 0.156338L247.468 1ZM251.568 1.15L250.728 1.69325L250.739 1.71019L250.751 1.72668L251.568 1.15ZM252.018 5.65L251.028 5.50858L251.023 5.54082L251.021 5.5733L252.018 5.65ZM252.118 13.5L253.116 13.4524L253.116 13.4513L252.118 13.5ZM250.668 25.4L251.55 25.8706L251.553 25.8645L250.668 25.4ZM246.168 30.25L246.705 31.0931L246.705 31.0931L246.168 30.25ZM230.718 29.05L230.01 29.7571L230.016 29.7628L230.718 29.05ZM226.518 20.45L225.537 20.6461L225.537 20.6461L226.518 20.45ZM225.668 13.05L224.668 13.0861L224.669 13.0981L225.668 13.05ZM226.268 1.05L225.609 0.297422L225.597 0.307992L225.585 0.318944L226.268 1.05ZM230.118 3C230.118 3.94953 230.085 5.45262 230.018 7.51776L232.017 7.58224C232.084 5.51404 232.118 3.9838 232.118 3H230.118ZM230.018 7.53718L229.968 11.4372L231.967 11.4628L232.017 7.56282L230.018 7.53718ZM229.968 11.45C229.968 14.6595 230.203 17.3865 230.691 19.6137L232.644 19.1863C232.198 17.1468 231.968 14.5739 231.968 11.45H229.968ZM230.69 19.6095C230.995 21.0346 231.33 22.1832 231.707 23.0138L233.528 22.1862C233.239 21.5501 232.94 20.5654 232.645 19.1905L230.69 19.6095ZM231.732 23.064C232.14 23.8441 232.734 24.7015 233.492 25.6317L235.043 24.3683C234.334 23.4985 233.828 22.7559 233.503 22.136L231.732 23.064ZM233.506 25.6476C234.181 26.4422 235.042 27.0606 236.061 27.5138L236.874 25.6862C236.093 25.3394 235.487 24.8911 235.03 24.3524L233.506 25.6476ZM236.102 27.5308C237.138 27.938 238.179 28.15 239.218 28.15V26.15C238.456 26.15 237.663 25.9954 236.833 25.6692L236.102 27.5308ZM239.218 28.15C240.875 28.15 242.327 27.9043 243.529 27.3614L242.706 25.5386C241.841 25.9291 240.693 26.15 239.218 26.15V28.15ZM243.518 27.3662C244.824 26.7948 245.794 25.8102 246.422 24.4758L244.613 23.6242C244.174 24.5565 243.544 25.1719 242.717 25.5338L243.518 27.3662ZM246.418 24.4856C247.501 22.2468 248.018 19.5378 248.018 16.4H246.018C246.018 19.3288 245.534 21.7199 244.617 23.6144L246.418 24.4856ZM248.018 16.4C248.018 14.4622 247.899 12.1153 247.664 9.36494L245.671 9.53505C245.903 12.2513 246.018 14.5378 246.018 16.4H248.018ZM247.665 9.38348C247.466 6.38652 247.368 4.21457 247.368 2.85H245.368C245.368 4.28543 245.47 6.51348 245.67 9.51652L247.665 9.38348ZM247.368 2.85C247.368 2.47591 247.514 2.15574 248.004 1.84366L246.931 0.156338C245.954 0.777596 245.368 1.69076 245.368 2.85H247.368ZM248.004 1.84366C248.645 1.43574 249.125 1.3 249.468 1.3V-0.7C248.61 -0.7 247.756 -0.369069 246.931 0.156338L248.004 1.84366ZM249.468 1.3C250.352 1.3 250.629 1.54077 250.728 1.69325L252.407 0.606746C251.772 -0.374109 250.65 -0.7 249.468 -0.7V1.3ZM250.751 1.72668C251.019 2.10694 251.168 2.56709 251.168 3.15H253.168C253.168 2.19958 252.916 1.32639 252.385 0.573314L250.751 1.72668ZM251.168 3.15C251.168 4.08522 251.119 4.86887 251.028 5.50858L253.008 5.79142C253.116 5.03113 253.168 4.14811 253.168 3.15H251.168ZM251.021 5.5733C250.954 6.44049 250.918 7.09114 250.918 7.5H252.918C252.918 7.17552 252.948 6.59284 253.015 5.7267L251.021 5.5733ZM250.918 7.5C250.918 8.79266 250.985 10.8133 251.119 13.5487L253.116 13.4513C252.983 10.7201 252.918 8.74067 252.918 7.5H250.918ZM251.119 13.5476C251.152 14.2426 251.185 15.0551 251.218 15.9857L253.217 15.9143C253.184 14.9782 253.15 14.1574 253.116 13.4524L251.119 13.5476ZM251.218 15.9857C251.251 16.9056 251.268 17.8936 251.268 18.95H253.268C253.268 17.8731 253.251 16.8611 253.217 15.9143L251.218 15.9857ZM251.268 18.95C251.268 21.0527 250.775 23.0435 249.782 24.9355L251.553 25.8645C252.694 23.6898 253.268 21.3807 253.268 18.95H251.268ZM249.785 24.9294C248.8 26.7758 247.42 28.2649 245.63 29.4069L246.705 31.0931C248.782 29.7684 250.401 28.0242 251.55 25.8706L249.785 24.9294ZM245.63 29.4069C243.869 30.53 241.859 31.1 239.568 31.1V33.1C242.21 33.1 244.599 32.4367 246.705 31.0931L245.63 29.4069ZM239.568 31.1C235.909 31.1 233.244 30.1331 231.419 28.3372L230.016 29.7628C232.324 32.0335 235.559 33.1 239.568 33.1V31.1ZM231.425 28.3429C229.532 26.4501 228.204 23.7807 227.498 20.2539L225.537 20.6461C226.298 24.4526 227.77 27.5165 230.01 29.7571L231.425 28.3429ZM227.498 20.2539C227.077 18.1464 226.798 15.7307 226.666 13.0019L224.669 13.0981C224.804 15.9026 225.092 18.4202 225.537 20.6461L227.498 20.2539ZM226.667 13.0139C226.568 10.2638 226.518 6.77686 226.518 2.55H224.518C224.518 6.78981 224.568 10.3029 224.668 13.0861L226.667 13.0139ZM226.518 2.55C226.518 2.36707 226.592 2.11514 226.95 1.78105L225.585 0.318944C224.943 0.918188 224.518 1.66626 224.518 2.55H226.518ZM226.926 1.80258C227.312 1.46495 227.652 1.35 227.968 1.35V-0.650001C227.083 -0.650001 226.29 -0.298284 225.609 0.297422L226.926 1.80258ZM227.968 1.35C228.902 1.35 229.416 1.55005 229.686 1.77773C229.924 1.97755 230.118 2.32051 230.118 3H232.118C232.118 1.91282 231.786 0.930778 230.974 0.247273C230.194 -0.408381 229.134 -0.650001 227.968 -0.650001V1.35Z" fill="black"/>
</svg>
